<?xml version="1.0" standalone="no"?><!DOCTYPE svg PUBLIC "-//W3C//DTD SVG 1.1//EN" "http://www.w3.org/Graphics/SVG/1.1/DTD/svg11.dtd"><svg t="1496410728831" class="icon" style="" viewBox="0 0 1024 1024" version="1.1" xmlns="http://www.w3.org/2000/svg" p-id="2411" xmlns:xlink="http://www.w3.org/1999/xlink" width="32" height="32"><defs><style type="text/css"></style></defs><path d="M967.976345 519.115334L511.986797 92.316902 55.99725 517.899038c-8.878964 8.392446-9.365483 22.379855-1.094667 31.258819 8.270816 8.878964 22.379855 9.365483 31.258819 1.094667l425.825395-397.364057 425.825395 398.580354c3.892149 3.648889 9.243853 5.959853 15.082076 5.959852 6.324742 0 12.041335-2.675852 16.055114-6.93289 8.392446-9.000594 8.027557-22.988003-0.973037-31.380449z" fill="#ffffff" p-id="2412"></path><path d="M828.832028 527.872669c-12.162965 0-22.136596 9.852001-22.136596 22.136596v338.981827H629.845925V653.151206H394.127669v235.839886H217.156532V550.009265c0-12.162965-9.852001-22.136596-22.136596-22.136596-12.162965 0-22.136596 9.852001-22.136595 22.136596v383.255018H438.157601V697.424397h147.415133v235.839886h265.27426V550.009265c0.12163-12.284594-9.730372-22.136596-22.014966-22.136596z" fill="#ffffff" p-id="2413"></path><path d="M202.804234 897.748426h203.972918V672.003801h197.769807v225.744625h219.906402V548.06319h121.872906L511.986797 136.225205 62.078732 542.224967l138.779427 5.838223 1.946075 349.685236z" fill="#ffffff" p-id="2414"></path><path d="M590.924438 165.902839h-32.961634v211.635586h257.733222v-0.486519zM815.696026 357.834422V165.902839h-204.337807z" fill="#ffffff" p-id="2415"></path></svg>