<?xml version="1.0" encoding="UTF-8"?>
<svg xmlns="http://www.w3.org/2000/svg" version="1.1" height="438" width="441" viewBox="0 0 438 441">
<g transform="translate(-194.614,-71.340029)" style="display:none"></g>
<g transform="translate(-194.614,-71.340029)"></g>
<g transform="translate(-194.614,-71.340029)"></g>
<g transform="translate(-194.614,-71.340029)"></g>
<g transform="translate(-194.614,-71.340029)">
	<g>
		<g>
			<path d="m 407.829,95.383 c 58.729,0 112.03,23.474 150.614,61.322 l -4.596,3.574 19.266,65.911 3.042,21.294 14.196,38.532 14.207,4.44 c -0.059,11.366 -0.586,49.771 -4.97,58.889 l 15.363,2.827 c -5.658,23.119 -15.271,44.764 -28.098,64.201 l -13.185,-7.417 c 0,0 -32.296,39.91 -43.08,44.97 l 10.409,12.236 c -19.107,15.04 -40.905,26.931 -64.558,34.847 l -7.041,-15.088 c 0,0 -46.853,11.713 -58.566,9.544 l 1.385,16.621 c -1.46,0.029 -2.922,0.056 -4.39,0.056 -117.285,0 -212.943,-93.608 -212.943,-208.38 0.002,-114.772 95.66,-208.379 212.945,-208.379 l 0,0 z" style="fill:#231815;fill-rule:evenodd" />
			<path d="m 407.672,93.363 c 58.266,0 111.146,23.288 149.426,60.838 l -4.561,3.547 19.114,65.39 3.018,21.126 14.085,38.229 14.095,4.405 c -0.059,11.276 -0.581,49.378 -4.931,58.424 l 15.241,2.805 c -5.612,22.937 -15.149,44.41 -27.875,63.694 l -13.081,-7.358 c 0,0 -32.041,39.596 -42.74,44.615 l 10.327,12.14 c -18.956,14.921 -40.582,26.718 -64.047,34.571 l -6.986,-14.969 c 0,0 -46.482,11.621 -58.104,9.469 l 1.374,16.49 c -1.449,0.028 -2.899,0.055 -4.355,0.055 -116.359,0 -211.262,-92.869 -211.262,-206.735 0,-113.866 94.903,-206.736 211.262,-206.736 l 0,0 z" style="fill:#f08300;fill-rule:evenodd;stroke:#231815;stroke-width:0.21600001;stroke-miterlimit:2.41420007" />
			<path d="m 253.114,305.238 73.7,117.159 c -1.353,0.452 -2.696,0.915 -4.03,1.389 L 253.178,315.81 c -0.09,-2.014 -0.147,-4.035 -0.147,-6.069 0,-1.507 0.033,-3.007 0.083,-4.503 l 0,0 z M 406.843,167.293 c 2.239,0.037 4.467,0.113 6.683,0.239 l 3.192,241.421 c -1.331,-0.02 -2.663,-0.033 -4,-0.033 l -5.875,-241.627 0,0 z m 19.978,1.544 c 2.226,0.314 4.434,0.679 6.627,1.083 l -8.768,239.258 c -1.328,-0.055 -2.659,-0.101 -3.994,-0.139 l 6.135,-240.202 0,0 z m 19.681,4.065 c 2.182,0.596 4.345,1.235 6.485,1.922 l -20.354,234.789 c -1.325,-0.092 -2.656,-0.173 -3.99,-0.245 l 17.859,-236.466 0,0 z m 19.102,6.585 c 2.109,0.886 4.194,1.813 6.253,2.785 l -31.273,228 c -1.324,-0.129 -2.652,-0.252 -3.986,-0.362 l 29.006,-230.423 0,0 z m 18.233,9.092 c 2.008,1.173 3.985,2.389 5.931,3.646 l -41.235,218.941 c -1.323,-0.167 -2.65,-0.326 -3.983,-0.476 l 39.287,-222.111 0,0 z m 17.07,11.573 c 1.875,1.467 3.712,2.977 5.509,4.524 l -49.928,207.61 c -1.321,-0.206 -2.647,-0.401 -3.979,-0.589 l 48.398,-211.545 0,0 z m 15.592,14.061 c 1.705,1.772 3.361,3.588 4.973,5.438 l -57.016,193.996 c -1.318,-0.247 -2.645,-0.482 -3.977,-0.709 l 56.02,-198.725 0,0 z m 13.756,16.594 c 1.492,2.101 2.924,4.241 4.299,6.418 l -62.117,178.036 c -1.316,-0.288 -2.641,-0.567 -3.971,-0.836 l 61.789,-183.618 0,0 z m 11.493,19.252 c 1.219,2.47 2.371,4.975 3.44,7.518 l -64.761,159.567 c -1.314,-0.331 -2.636,-0.653 -3.963,-0.967 l 65.284,-166.118 0,0 z m 8.641,22.235 c 0.854,2.939 1.618,5.912 2.272,8.923 L 488.43,419.304 c -1.31,-0.377 -2.628,-0.744 -3.953,-1.103 l 65.912,-145.907 0,0 z m 4.838,25.99 c 0.311,3.648 0.477,7.334 0.487,11.055 L 496.44,421.755 c -1.305,-0.424 -2.617,-0.839 -3.938,-1.243 l 62.725,-122.228 0,0 z m -1.108,32.105 c -0.872,5.595 -2.088,11.087 -3.631,16.456 l -35.605,60.068 c -3.356,3.38 -6.885,6.605 -10.571,9.667 l 49.807,-86.191 0,0 z M 254.738,288.372 c 0.478,-2.969 1.061,-5.906 1.732,-8.813 L 335.2,419.76 c -1.356,0.399 -2.705,0.809 -4.044,1.229 l -76.418,-132.617 0,0 z m 6.064,-23.659 c 0.91,-2.561 1.895,-5.089 2.954,-7.582 l 79.798,160.325 c -1.358,0.35 -2.708,0.709 -4.051,1.077 l -78.701,-153.82 0,0 z m 9.38,-20.724 c 1.235,-2.221 2.53,-4.406 3.883,-6.558 l 77.799,178.034 c -1.357,0.302 -2.709,0.612 -4.053,0.933 l -77.629,-172.409 0,0 z m 11.999,-18.135 c 1.49,-1.918 3.03,-3.799 4.618,-5.643 l 73.329,193.559 c -1.356,0.256 -2.706,0.521 -4.05,0.796 l -73.897,-188.712 0,0 z m 14.131,-15.688 c 1.696,-1.631 3.434,-3.225 5.21,-4.777 l 66.818,206.96 c -1.354,0.213 -2.702,0.436 -4.044,0.667 l -67.984,-202.85 0,0 z m 15.875,-13.281 c 1.862,-1.353 3.759,-2.665 5.688,-3.937 l 58.628,218.24 c -1.351,0.172 -2.696,0.353 -4.037,0.543 l -60.279,-214.846 0,0 z m 17.288,-10.873 c 1.994,-1.076 4.016,-2.112 6.065,-3.104 l 49.08,227.365 c -1.348,0.132 -2.69,0.274 -4.029,0.425 l -51.116,-224.686 0,0 z m 18.4,-8.414 c 2.095,-0.797 4.211,-1.552 6.351,-2.263 l 38.469,234.271 c -1.344,0.093 -2.687,0.189 -4.022,0.3 l -40.798,-232.308 0,0 z m 19.216,-5.943 c 2.164,-0.521 4.347,-0.996 6.547,-1.427 l 27.094,238.941 c -1.341,0.055 -2.679,0.118 -4.013,0.189 l -29.628,-237.703 0,0 z m 19.75,-3.426 c 2.206,-0.241 4.424,-0.441 6.657,-0.593 l 15.239,241.315 c -1.338,0.019 -2.674,0.046 -4.006,0.083 l -17.89,-240.805 0,0 z" style="fill:#231815;fill-rule:evenodd" />
			<path d="m 580.41,285.876 0.141,0.382 13.528,4.228 c -0.057,10.823 -0.558,47.395 -4.732,56.076 l 14.629,2.692 c -5.388,22.015 -14.541,42.626 -26.756,61.136 l -12.555,-7.063 c 0,0 -30.753,38.005 -41.023,42.823 l 9.913,11.651 c -18.195,14.321 -38.951,25.645 -61.475,33.183 l -6.705,-14.368 c 0,0 -44.615,11.154 -55.769,9.089 l 1.319,15.827 c -1.391,0.027 -2.783,0.053 -4.181,0.053 -19.223,0 -37.835,-2.643 -55.478,-7.572 l 12.023,-20.439 9.697,-27.475 c 9.994,2.169 20.359,3.324 30.987,3.324 80.561,0 146.266,-65.705 146.266,-146.267 0,-3.215 -0.116,-6.403 -0.322,-9.568 l 30.493,-7.712 0,0 z" style="fill:#fdd000;fill-rule:evenodd" />
			<path d="m 251.341,303.466 73.7,117.158 c -1.353,0.453 -2.696,0.916 -4.03,1.389 L 251.405,314.038 c -0.09,-2.015 -0.147,-4.035 -0.147,-6.069 0,-1.507 0.034,-3.007 0.083,-4.503 l 0,0 z M 405.07,165.521 c 2.238,0.036 4.467,0.113 6.683,0.238 l 3.192,241.421 c -1.331,-0.019 -2.663,-0.032 -4,-0.033 l -5.875,-241.626 0,0 z m 19.979,1.543 c 2.225,0.313 4.433,0.678 6.626,1.082 l -8.767,239.259 c -1.328,-0.055 -2.66,-0.102 -3.995,-0.14 l 6.136,-240.201 0,0 z m 19.68,4.065 c 2.182,0.597 4.345,1.235 6.484,1.922 L 430.861,407.84 c -1.326,-0.092 -2.656,-0.172 -3.99,-0.245 l 17.858,-236.466 0,0 z m 19.101,6.586 c 2.11,0.885 4.194,1.813 6.254,2.784 l -31.274,228 c -1.324,-0.129 -2.652,-0.252 -3.986,-0.361 l 29.006,-230.423 0,0 z m 18.233,9.092 c 2.009,1.172 3.986,2.388 5.931,3.645 L 446.76,409.393 c -1.323,-0.167 -2.651,-0.325 -3.983,-0.475 l 39.286,-222.111 0,0 z m 17.071,11.573 c 1.876,1.466 3.713,2.976 5.51,4.524 l -49.928,207.61 c -1.321,-0.206 -2.648,-0.402 -3.98,-0.59 l 48.398,-211.544 0,0 z m 15.592,14.06 c 1.705,1.772 3.362,3.587 4.974,5.438 l -57.016,193.997 c -1.319,-0.247 -2.646,-0.483 -3.977,-0.71 l 56.019,-198.725 0,0 z m 13.756,16.594 c 1.491,2.101 2.923,4.24 4.299,6.418 l -62.117,178.035 c -1.317,-0.288 -2.641,-0.567 -3.972,-0.836 l 61.79,-183.617 0,0 z m 11.493,19.251 c 1.22,2.471 2.371,4.975 3.441,7.519 l -64.762,159.567 c -1.314,-0.331 -2.635,-0.654 -3.963,-0.968 l 65.284,-166.118 0,0 z m 8.64,22.236 c 0.854,2.939 1.619,5.913 2.273,8.924 L 486.657,417.53 c -1.311,-0.376 -2.628,-0.744 -3.954,-1.102 l 65.912,-145.907 0,0 z m 4.839,25.99 c 0.311,3.649 0.476,7.335 0.486,11.055 l -59.274,112.416 c -1.305,-0.423 -2.617,-0.838 -3.938,-1.242 l 62.726,-122.229 0,0 z m -1.107,32.104 c -0.872,5.595 -2.088,11.088 -3.632,16.456 l -35.605,60.068 c -3.355,3.38 -6.884,6.606 -10.57,9.668 l 49.807,-86.192 0,0 z M 252.965,286.599 c 0.478,-2.969 1.061,-5.906 1.732,-8.813 l 78.73,140.201 c -1.356,0.399 -2.705,0.809 -4.044,1.229 l -76.418,-132.617 0,0 z m 6.064,-23.659 c 0.91,-2.561 1.895,-5.089 2.954,-7.583 l 79.798,160.325 c -1.358,0.35 -2.709,0.709 -4.051,1.078 l -78.701,-153.82 0,0 z m 9.38,-20.724 c 1.235,-2.22 2.53,-4.406 3.883,-6.557 l 77.799,178.033 c -1.357,0.302 -2.709,0.612 -4.053,0.934 l -77.629,-172.41 0,0 z m 11.999,-18.136 c 1.49,-1.917 3.03,-3.799 4.618,-5.643 l 73.328,193.559 c -1.356,0.257 -2.706,0.521 -4.05,0.797 l -73.896,-188.713 0,0 z m 14.131,-15.687 c 1.696,-1.631 3.434,-3.224 5.21,-4.777 l 66.818,206.96 c -1.354,0.213 -2.702,0.436 -4.044,0.667 l -67.984,-202.85 0,0 z m 15.875,-13.282 c 1.862,-1.353 3.759,-2.665 5.688,-3.936 l 58.629,218.239 c -1.351,0.172 -2.696,0.353 -4.037,0.543 l -60.28,-214.846 0,0 z m 17.288,-10.872 c 1.994,-1.077 4.016,-2.112 6.064,-3.104 l 49.08,227.365 c -1.348,0.132 -2.69,0.274 -4.029,0.426 l -51.115,-224.687 0,0 z m 18.4,-8.415 c 2.095,-0.796 4.211,-1.551 6.351,-2.262 l 38.469,234.27 c -1.344,0.093 -2.686,0.19 -4.022,0.3 l -40.798,-232.308 0,0 z m 19.216,-5.941 c 2.164,-0.521 4.347,-0.996 6.546,-1.427 l 27.094,238.94 c -1.341,0.055 -2.679,0.118 -4.013,0.19 l -29.627,-237.703 0,0 z m 19.75,-3.428 c 2.206,-0.24 4.424,-0.441 6.657,-0.593 l 15.239,241.315 c -1.339,0.02 -2.674,0.047 -4.006,0.083 l -17.89,-240.805 0,0 z" style="fill:#fff100;fill-rule:evenodd" />
			<g>
				<path d="m 516.146,403.798 c 0,0 -22.06,-10.417 -14.094,-13.481 7.967,-3.063 18.383,-2.45 6.128,-4.901 0,0 -99.88,-28.188 -201.598,6.127 0,0 0.612,1.226 12.868,3.064 0,0 -1.838,6.127 -17.77,17.157 l -9.804,-6.741 -15.933,-25.123 -10.417,-24.511 -4.29,-13.481 c 2.352,1.224 10.311,0.593 11.643,-1.838 0,0 127.455,-84.561 275.743,-8.578 0,0 -0.613,6.739 3.063,7.966 l 3.064,6.739 -6.741,14.707 -15.318,30.026 -3.064,7.966 -8.578,8.578 -4.902,-3.676 0,0 z" style="fill:#231815;fill-rule:evenodd" />
				<path d="m 277.169,341.908 c 0,0 140.322,-78.433 266.551,-5.514 0,0 4.902,1.225 7.354,9.804 l -5.516,17.157 -6.127,13.48 -10.417,18.383 -5.515,6.74 c 0,0 -4.884,-5.46 -9.786,-7.298 0,0 11.624,-9.859 3.658,-12.923 0,0 -113.361,-38.604 -216.917,8.578 0,-0.134 0.753,6.339 8.719,8.579 0,0 -5.655,4.289 -13.621,10.417 l -17.77,-23.897 -13.481,-28.8 3.677,-9.192 9.191,-5.514 0,0 z" style="fill:#231815;fill-rule:evenodd" />
			</g>
			<g>
				<path d="m 516.146,395.818 c 0,0 -22.06,-10.417 -14.094,-13.48 7.967,-3.063 18.383,-2.45 6.128,-4.902 0,0 -99.88,-28.187 -201.598,6.128 0,0 0.612,1.226 12.868,3.064 0,0 -1.838,6.127 -17.77,17.156 l -9.804,-6.74 -15.932,-25.122 -10.417,-24.511 -4.29,-13.481 c 2.352,1.224 10.311,0.593 11.643,-1.838 0,0 127.455,-84.561 275.743,-8.578 0,0 -0.613,6.739 3.063,7.966 l 3.064,6.739 -6.741,14.707 -15.318,30.025 -3.064,7.966 -8.578,8.578 -4.903,-3.677 0,0 z" style="fill:#fff100;fill-rule:evenodd" />
				<path d="m 277.169,333.93 c 0,0 140.322,-78.433 266.551,-5.515 0,0 4.902,1.226 7.354,9.804 l -5.516,17.158 -6.127,13.48 -10.417,18.383 -5.515,6.74 c 0,0 -4.884,-5.46 -9.786,-7.298 0,0 11.624,-9.859 3.658,-12.923 0,0 -113.361,-38.604 -216.917,8.578 0,-0.134 0.753,6.339 8.719,8.579 0,0 -5.655,4.289 -13.621,10.417 l -17.77,-23.897 -13.481,-28.8 3.677,-9.192 9.191,-5.514 0,0 z" style="fill:#e60012;fill-rule:evenodd" />
			</g>
			<path d="m 561.298,291.604 c 0.426,4.551 0.654,9.157 0.654,13.813 0,83.127 -69.283,150.925 -154.23,150.925 -84.947,0 -154.23,-67.798 -154.23,-150.925 0,-30.133 9.11,-58.248 24.764,-81.853 l 3.506,8.014 c -13.29,21.604 -20.95,46.873 -20.95,73.839 0,79.182 65.996,143.762 146.911,143.762 80.915,0 146.911,-64.58 146.911,-143.762 0,-4.659 -0.236,-9.266 -0.684,-13.813 h 7.348 l 0,0 z" style="fill:#231815;fill-rule:evenodd" />
			<path d="m 410.136,406.993 c 37.701,0 70.216,6.038 84.343,14.631 -0.985,0.409 -2.169,0.802 -3.83,1.134 -0.519,0.104 -0.961,0.225 -1.339,0.358 -12.776,-7.815 -43.478,-13.346 -79.174,-13.346 -38.57,0 -71.31,6.456 -81.904,15.275 -1.57,-0.786 -3.167,-1.533 -4.503,-2.055 12.805,-9.312 46.736,-15.997 86.407,-15.997 l 0,0 z" style="fill:#fff9b1;fill-rule:evenodd" />
			<path d="m 267.403,189.64 c -24.152,29.952 -38.594,67.721 -38.594,108.685 0,91.247 71.642,166.633 162.693,175.075 l -1.477,3.587 c -92.433,-9.134 -164.991,-85.869 -164.991,-178.662 0,-42.542 15.262,-81.702 40.687,-112.528 l 1.682,3.843 0,0 z" style="fill:#231815;fill-rule:evenodd" />
			<path d="m 561.298,286.284 c 0.426,4.552 0.654,9.157 0.654,13.813 0,83.127 -69.283,150.925 -154.23,150.925 -84.947,0 -154.23,-67.798 -154.23,-150.925 0,-30.132 9.11,-58.247 24.764,-81.853 l 3.506,8.015 c -13.29,21.604 -20.95,46.873 -20.95,73.838 0,79.182 65.996,143.763 146.911,143.763 80.915,0 146.911,-64.581 146.911,-143.763 0,-4.659 -0.236,-9.266 -0.684,-13.813 h 7.348 l 0,0 z" style="fill:#fff100;fill-rule:evenodd" />
			<g>
				<g>
					<g>
						<path d="m 273.924,205.181 c -11.864,16.012 -20.846,34.19 -26.184,53.799 -1.468,0.192 -2.777,0.368 -3.776,0.502 5.58,-21.232 15.337,-40.854 28.353,-57.974 l 1.607,3.673 0,0 z m -10.785,-24.653 c -17.71,20.562 -31.002,44.878 -38.399,71.53 l -3.734,-1.556 c 7.765,-27.658 21.746,-52.843 40.365,-74.017 l 1.768,4.043 0,0 z m -5.2,-11.884 c -20.405,22.346 -35.755,49.199 -44.241,78.814 l -0.066,-0.027 -3.737,-2.19 c 8.915,-30.449 24.94,-58.009 46.189,-80.838 l 1.855,4.241 0,0 z" style="fill:#231815;fill-rule:evenodd" />
						<path d="m 272.151,204.295 c -11.864,16.011 -20.846,34.19 -26.184,53.798 -1.468,0.192 -2.777,0.368 -3.776,0.502 5.58,-21.231 15.337,-40.854 28.353,-57.974 l 1.607,3.674 0,0 z m -10.785,-24.653 c -17.71,20.562 -31.002,44.879 -38.399,71.53 l -3.734,-1.556 c 7.764,-27.658 21.746,-52.842 40.365,-74.017 l 1.768,4.043 0,0 z m -5.2,-11.885 c -20.405,22.346 -35.755,49.199 -44.241,78.814 l -0.066,-0.027 -3.737,-2.19 c 8.915,-30.449 24.94,-58.009 46.189,-80.837 l 1.855,4.24 0,0 z" style="fill:#fff100;fill-rule:evenodd" />
					</g>
					<path d="m 268.289,191.413 c -15.021,18.628 -26.284,40.28 -32.655,63.844 l -3.285,-0.505 -0.325,-0.578 c 6.693,-24.665 18.639,-47.273 34.583,-66.604 l 1.682,3.843 0,0 z" style="fill:#231815;fill-rule:evenodd" />
					<path d="m 266.516,191.413 c -15.021,18.628 -26.284,40.28 -32.655,63.844 l -3.285,-0.505 -0.325,-0.578 c 6.693,-24.665 18.639,-47.273 34.583,-66.604 l 1.682,3.843 0,0 z" style="fill:#fff100;fill-rule:evenodd" />
				</g>
				<polygon points="211.285,116.972 223.085,124.717 315.124,312.959 321.084,310.31 227.991,121.859 224.492,108.235 210.916,97.057 210.916,97.057 " style="fill:#231815;fill-rule:evenodd" />
				<polygon points="213.944,114.313 225.745,122.057 317.783,310.299 323.744,307.65 230.65,119.199 227.151,105.575 213.575,94.397 213.575,94.397 " style="fill:#fff100;fill-rule:evenodd" />
				<path d="m 234.146,117.329 c 0,0 5.297,0 7.947,4.635 0,0 33.111,-36.422 97.348,-31.124 0,0 43.044,3.974 69.534,-7.947 0,0 54.965,-13.244 88.738,10.596 0,0 0.691,13.376 38.438,11.389 0,0 21.854,-4.636 33.111,39.733 0,0 52.099,153.203 56.072,157.177 0,0 -55.276,-10.817 -70.508,-5.52 0,0 -17.268,4.485 -18.593,-5.447 0,0 -9.933,-14.569 -10.596,-27.151 0,0 7.835,-3.961 -45.143,7.959 0,0 -37.748,5.298 -52.979,2.649 0,0 -50.992,-7.285 -70.197,0 0,0 -25.827,6.622 -39.071,23.178 l -80.792,-161.584 -5.96,-11.258 2.651,-7.285 0,0 z" style="fill:#231815;fill-rule:evenodd" />
				<path d="m 228.383,109.644 c 0,0 5.297,0 7.947,4.636 0,0 33.111,-36.423 97.347,-31.125 0,0 43.045,3.974 69.534,-7.946 0,0 54.965,-13.245 88.738,10.596 0,0 11.258,17.218 49.006,15.231 0,0 21.854,-4.636 33.11,39.733 0,0 54.304,157.61 58.276,161.584 0,0 -67.547,-14.569 -82.778,-9.271 0,0 -9.271,1.986 -10.596,-7.946 0,0 -9.934,-14.57 -10.596,-27.151 0,0 -0.662,-5.961 -53.641,5.96 0,0 -37.747,5.297 -52.978,2.648 0,0 -50.992,-7.284 -70.197,0 0,0 -25.827,6.622 -39.072,23.178 l -80.792,-161.584 -5.959,-11.257 2.651,-7.286 0,0 z" style="fill:#fff100;fill-rule:evenodd" />
				<path d="m 240.801,114.428 c 0,0 4.97,0 7.455,4.349 0,0 31.063,-34.168 91.323,-29.198 0,0 40.381,3.035 68.46,-6.994 0,0 46.028,-13.578 80.479,6.019 0,0 3.551,3.967 10.879,10.274 6.237,5.368 22.961,5.782 39.007,4.938 0,0 21.424,-1.812 31.985,39.812 0,0 52.646,149.561 56.373,153.288 0,0 -61.914,-10.832 -76.203,-5.861 0,0 -8.697,1.863 -9.94,-7.455 0,0 -5.99,-5.973 -9.097,-14.865 -1.144,-3.273 -2.155,-7.514 -2.216,-11.271 -0.008,-0.46 7.831,-1.946 15.504,-0.622 8.697,1.502 17.273,6.706 17.32,6.239 -1.778,-4.233 -22.298,-11.41 -30.978,-12.237 0,0 -11.253,-1.331 -59.248,8.337 0,0 -38.013,6.126 -52.301,3.641 0,0 -44.11,-7.353 -63.86,-2.831 0,0 -32.225,7.784 -46.325,21.64 l -69.312,-149.805 -4.747,-10.139 5.442,-7.259 0,0 z" style="fill:#e60012;fill-rule:evenodd" />
				<path d="m 530.147,255.752 c 0,0 28.583,-0.983 37.305,12.014 0,0 1.225,6.516 -3.985,7.177 0,0 -12.767,1.285 -22.216,11.771 l -5.681,-8.447 -3.626,-7.856 -2.417,-7.252 -0.483,-4.472 1.103,-2.935 0,0 z" style="fill:#fff100;fill-rule:evenodd" />
				<path d="m 565.382,268.036 c 0,0 2.815,4.835 -3.217,5.176 0,0 -14.92,1.685 -23.115,11.701 l -4.22,-7.479 -3.415,-7.398 -2.276,-6.828 c -0.289,-1.941 -0.551,-3.827 -0.702,-5.823 5.897,-3.705 31.844,5.171 36.945,10.651 l 0,0 z" style="fill:#e60012;fill-rule:evenodd" />
				<polygon points="497.881,96.389 560.607,262.959 561.999,263.888 499.273,96.854 497.881,96.389 " style="fill:#fff100;fill-rule:evenodd" />
				<path d="m 327.022,98.382 c 28.319,0 50.922,21.854 50.315,48.647 -0.606,26.794 -24.196,48.647 -52.516,48.647 -28.319,0 -50.922,-21.854 -50.316,-48.647 0.606,-26.793 24.198,-48.647 52.517,-48.647 l 0,0 z m -25.057,16.88 25.247,17.123 21.011,-19.112 c -6.212,-3.612 -13.538,-5.695 -21.41,-5.695 -9.22,-0.001 -17.821,2.858 -24.848,7.684 l 0,0 z m 46.55,-1.817 -8.81,30.429 25.214,14.388 -32.28,1.045 -5.624,27.128 c 22.073,-0.986 40.126,-18.307 40.603,-39.405 0.321,-14.164 -7.358,-26.624 -19.103,-33.585 l 0,0 z m -22.228,73.016 -10.51,-29.105 -28.854,3.18 25.5,-19.819 -11.238,-24.904 c -10.038,7.226 -16.673,18.538 -16.96,31.218 -0.492,21.729 17.839,39.451 40.805,39.451 0.42,-0.002 0.839,-0.008 1.257,-0.021 l 0,0 z" style="fill:#231815;fill-rule:evenodd" />
				<path d="m 326.135,94.836 c 28.319,0 50.922,21.854 50.315,48.647 -0.605,26.794 -24.196,48.647 -52.516,48.647 -28.319,0 -50.922,-21.854 -50.316,-48.647 0.606,-26.793 24.198,-48.647 52.517,-48.647 l 0,0 z m -25.056,16.88 25.247,17.123 21.011,-19.112 c -6.211,-3.612 -13.538,-5.695 -21.41,-5.695 -9.22,-10e-4 -17.822,2.858 -24.848,7.684 l 0,0 z m 46.549,-1.817 -8.81,30.429 25.215,14.388 -32.28,1.045 -5.624,27.128 c 22.073,-0.986 40.125,-18.307 40.603,-39.405 0.321,-14.165 -7.358,-26.624 -19.104,-33.585 l 0,0 z m -22.228,73.016 -10.51,-29.105 -28.855,3.18 25.5,-19.819 -11.238,-24.904 c -10.039,7.226 -16.673,18.538 -16.96,31.218 -0.491,21.729 17.839,39.451 40.805,39.451 0.421,-0.001 0.84,-0.009 1.258,-0.021 l 0,0 z" style="fill:#fff100;fill-rule:evenodd" />
			</g>
			<path d="m 357.311,502.891 c 0,0 8.006,-2.25 6.856,-12.533 0,0 1.407,-9.349 11.42,-12.396 -3.091,-0.256 -5.034,-15.945 -2.849,-28.07 6.259,1.109 12.862,2.384 19.267,5.886 6.304,7.513 8.354,15.967 7.129,25.795 -6.011,19.561 -22.487,23.771 -41.823,21.318 l 0,0 z M 242.212,222.955 c 0,0 -3.05,4.678 -5.491,5.694 0,0 -8.745,4.067 -9.965,11.592 0,0 7.931,3.661 7.321,9.965 0,0 8.948,-4.271 14.439,-3.66 0,0 4.677,-11.999 -2.441,-17.286 0,0 -1.702,-1.476 -1.473,-5.798 -0.936,-1.153 -1.565,-1.66 -2.39,-0.507 l 0,0 z m -34.149,10.19 c 0,0 1.177,10.004 12.946,7.65 0,0 10.593,3.53 11.77,12.357 0,0 21.773,-8.238 32.954,-4.119 0,0 -5.519,6.454 -8.036,19.815 0,0 -1.461,2.719 -6.284,2.333 0,0 -22.995,-2.7 -24.152,2.508 0,0 -2.469,-8.681 -10.957,-10.417 0,0 -13.311,-0.579 -12.539,-7.33 0.281,-7.599 2.415,-15.198 4.298,-22.797 l 0,0 z m -7.231,27.642 c 0,0 2.987,7.965 13.323,6.215 0,0 9.612,0.888 13.586,10.835 -0.012,-3.139 15.741,-6 28.241,-4.483 0,0 -2.753,6.453 -3.82,20.008 0,0 -2.458,-1.221 -7.295,-1.086 0,0 -18.023,2.939 -18.614,8.242 0,0 -5.058,-8.826 -13.683,-9.641 0,0 -14.222,2.706 -14.18,-4.089 -0.538,-7.586 1.386,-18.244 2.442,-26.001 l 0,0 z m -3.197,31.838 c 0,0 3.842,7.59 13.924,4.718 0,0 9.651,-0.171 14.691,9.281 -0.356,-3.119 14.989,-7.69 27.579,-7.554 0,0 -2.029,6.716 -1.603,20.306 0,0 -2.578,-0.942 -7.371,-0.279 0,0 -17.592,4.898 -17.598,10.233 0,0 -5.996,-8.219 -14.658,-8.082 0,0 -13.839,4.249 -14.542,-2.51 -1.365,-7.481 -0.62,-18.286 -0.422,-26.113 l 0,0 z m -0.403,34.141 c 0,0 5.509,6.482 14.642,1.336 0,0 9.345,-2.421 16.452,5.593 -1.074,-2.948 12.779,-10.977 25.053,-13.784 0,0 -0.405,7.005 3.183,20.119 0,0 -2.727,-0.314 -7.232,1.449 0,0 -15.962,8.871 -14.722,14.06 0,0 -7.749,-6.591 -16.14,-4.436 0,0 -12.464,7.362 -14.727,0.955 -3.075,-6.956 -4.874,-17.636 -6.509,-25.292 l 0,0 z m 6.436,30.465 c 0,0 6.307,5.71 14.691,-0.583 0,0 8.95,-3.617 17.041,3.403 -1.449,-2.785 11.24,-12.548 23.043,-16.932 0,0 0.511,6.997 5.776,19.534 0,0 -2.744,0.042 -6.981,2.378 0,0 -14.671,10.875 -12.765,15.858 0,0 -8.541,-5.525 -16.58,-2.296 0,0 -11.399,8.924 -14.477,2.866 -3.955,-6.494 -7.129,-16.85 -9.748,-24.228 l 0,0 z m 11.748,31.081 c 0,0 7.125,4.291 13.829,-3.592 0,0 7.773,-5.38 16.853,-0.174 -1.931,-2.427 8.167,-14.592 18.496,-21.309 0,0 1.88,6.742 9.378,17.928 0,0 -2.597,0.606 -6.152,3.764 0,0 -11.756,13.66 -8.953,18.145 0,0 -9.21,-3.651 -16.196,1.163 0,0 -9.04,11.078 -13.169,5.782 -5.05,-5.544 -10.128,-15.025 -14.086,-21.707 l 0,0 z m 15.645,26.153 c 0,0 7.65,3.265 13.199,-5.47 0,0 6.954,-6.404 16.667,-2.503 -2.248,-2.137 6.07,-15.581 15.372,-23.661 0,0 2.795,6.417 11.768,16.459 0,0 -2.488,0.959 -5.572,4.578 0,0 -9.754,15.153 -6.358,19.208 0,0 -9.625,-2.343 -15.879,3.392 0,0 -7.421,12.221 -12.243,7.548 -5.77,-4.792 -12.111,-13.481 -16.954,-19.551 l 0,0 z m 19.504,23.976 c 0,0 8.011,2.236 12.371,-7.148 0,0 6.057,-7.258 16.197,-4.659 -2.508,-1.825 3.982,-16.24 12.147,-25.467 0,0 3.61,5.996 13.817,14.779 0,0 -2.341,1.275 -4.926,5.267 0,0 -7.69,16.299 -3.793,19.874 0,0 -9.849,-1.063 -15.3,5.438 0,0 -5.76,13.086 -11.152,9.083 -6.343,-3.998 -13.765,-11.783 -19.361,-17.167 l 0,0 z m 23.571,23.579 c 0,0 8.292,0.66 10.772,-9.387 0,0 4.554,-8.283 15.003,-7.677 -2.811,-1.312 0.795,-16.703 7.041,-27.324 0,0 4.692,5.194 16.394,11.857 0,0 -2.053,1.701 -3.825,6.113 0,0 -4.423,17.471 0.087,20.233 0,0 -9.871,0.844 -13.974,8.27 0,0 -3.145,13.948 -9.204,11.053 -6.992,-2.708 -15.769,-8.926 -22.294,-13.138 l 0,0 z m 24.902,17.506 c 0,0 8.312,-0.323 9.589,-10.591 0,0 3.546,-8.764 13.993,-9.394 -2.946,-0.971 -1.18,-16.68 3.77,-27.964 0,0 5.272,4.604 17.678,9.842 0,0 -1.838,1.931 -3.078,6.521 0,0 -2.331,17.87 2.473,20.081 0,0 -9.702,2.002 -12.901,9.86 0,0 -1.478,14.222 -7.836,12.061 -7.265,-1.862 -16.713,-7.002 -23.688,-10.416 l 0,0 z m 28.392,14.08 c 0,0 8.167,-1.579 7.873,-11.922 0,0 2.176,-9.2 12.408,-11.407 -3.06,-0.512 -3.695,-16.307 -0.514,-28.21 0,0 5.909,3.751 18.966,7.047 0,0 -1.524,2.188 -2.054,6.913 0,0 0.405,18.018 5.488,19.474 0,0 -9.287,3.45 -11.257,11.702 0,0 0.695,14.281 -5.917,13.11 -7.462,-0.742 -17.58,-4.389 -24.993,-6.707 l 0,0 z" style="fill:#231815;fill-rule:evenodd" />
			<path d="m 355.537,501.117 c 0,0 8.007,-2.25 6.857,-12.532 0,0 1.407,-9.35 11.42,-12.396 -3.091,-0.256 -5.034,-15.945 -2.848,-28.071 6.259,1.11 12.862,2.385 19.267,5.886 6.304,7.513 8.354,15.967 7.129,25.796 -6.012,19.561 -22.488,23.77 -41.825,21.317 l 0,0 z M 240.439,221.182 c 0,0 -3.05,4.678 -5.491,5.695 0,0 -8.745,4.066 -9.965,11.592 0,0 7.931,3.66 7.321,9.965 0,0 8.948,-4.271 14.439,-3.661 0,0 4.678,-11.998 -2.44,-17.286 0,0 -1.702,-1.476 -1.473,-5.798 -0.938,-1.154 -1.566,-1.66 -2.391,-0.507 l 0,0 z m -34.149,10.19 c 0,0 1.177,10.004 12.946,7.649 0,0 10.592,3.531 11.769,12.358 0,0 21.774,-8.239 32.955,-4.119 0,0 -5.519,6.453 -8.036,19.814 0,0 -1.461,2.72 -6.284,2.333 0,0 -22.995,-2.7 -24.152,2.509 0,0 -2.469,-8.682 -10.957,-10.418 0,0 -13.311,-0.578 -12.539,-7.33 0.281,-7.599 2.415,-15.197 4.298,-22.796 l 0,0 z m -7.231,27.642 c 0,0 2.987,7.965 13.323,6.215 0,0 9.612,0.889 13.586,10.836 -0.012,-3.139 15.741,-6 28.241,-4.484 0,0 -2.753,6.453 -3.82,20.008 0,0 -2.458,-1.22 -7.295,-1.085 0,0 -18.023,2.938 -18.614,8.241 0,0 -5.058,-8.826 -13.684,-9.64 0,0 -14.221,2.706 -14.18,-4.09 -0.537,-7.585 1.387,-18.244 2.443,-26.001 l 0,0 z m -3.197,31.839 c 0,0 3.842,7.59 13.924,4.717 0,0 9.651,-0.171 14.691,9.281 -0.356,-3.119 14.989,-7.689 27.579,-7.554 0,0 -2.029,6.716 -1.604,20.306 0,0 -2.578,-0.942 -7.37,-0.279 0,0 -17.592,4.898 -17.598,10.233 0,0 -5.996,-8.218 -14.658,-8.082 0,0 -13.839,4.249 -14.542,-2.51 -1.365,-7.481 -0.62,-18.286 -0.422,-26.112 l 0,0 z m -0.403,34.139 c 0,0 5.509,6.483 14.642,1.336 0,0 9.344,-2.421 16.452,5.594 -1.074,-2.949 12.779,-10.978 25.053,-13.785 0,0 -0.405,7.005 3.182,20.119 0,0 -2.727,-0.314 -7.232,1.449 0,0 -15.962,8.871 -14.722,14.06 0,0 -7.749,-6.591 -16.14,-4.435 0,0 -12.464,7.362 -14.727,0.954 -3.074,-6.955 -4.873,-17.636 -6.508,-25.292 l 0,0 z m 6.436,30.466 c 0,0 6.307,5.71 14.691,-0.583 0,0 8.95,-3.617 17.041,3.403 -1.449,-2.785 11.24,-12.548 23.043,-16.931 0,0 0.511,6.997 5.776,19.533 0,0 -2.744,0.042 -6.981,2.378 0,0 -14.67,10.875 -12.765,15.858 0,0 -8.541,-5.525 -16.58,-2.295 0,0 -11.399,8.924 -14.477,2.865 -3.955,-6.495 -7.129,-16.85 -9.748,-24.228 l 0,0 z m 11.748,31.081 c 0,0 7.125,4.291 13.829,-3.592 0,0 7.773,-5.381 16.853,-0.175 -1.931,-2.427 8.166,-14.592 18.496,-21.308 0,0 1.88,6.742 9.378,17.928 0,0 -2.597,0.605 -6.152,3.763 0,0 -11.756,13.66 -8.953,18.145 0,0 -9.209,-3.65 -16.196,1.164 0,0 -9.04,11.077 -13.169,5.782 -5.05,-5.544 -10.128,-15.025 -14.086,-21.707 l 0,0 z m 15.644,26.153 c 0,0 7.651,3.264 13.199,-5.471 0,0 6.955,-6.403 16.667,-2.503 -2.248,-2.137 6.07,-15.58 15.372,-23.661 0,0 2.795,6.418 11.768,16.459 0,0 -2.488,0.959 -5.572,4.578 0,0 -9.754,15.154 -6.358,19.208 0,0 -9.625,-2.343 -15.879,3.392 0,0 -7.421,12.222 -12.243,7.548 -5.769,-4.792 -12.11,-13.48 -16.954,-19.55 l 0,0 z m 19.505,23.976 c 0,0 8.012,2.236 12.371,-7.147 0,0 6.058,-7.258 16.197,-4.66 -2.508,-1.824 3.982,-16.24 12.147,-25.467 0,0 3.61,5.997 13.817,14.779 0,0 -2.341,1.275 -4.926,5.267 0,0 -7.69,16.3 -3.793,19.875 0,0 -9.849,-1.064 -15.3,5.438 0,0 -5.76,13.085 -11.152,9.082 -6.343,-3.997 -13.765,-11.782 -19.361,-17.167 l 0,0 z m 23.571,23.579 c 0,0 8.292,0.659 10.772,-9.387 0,0 4.554,-8.284 15.003,-7.678 -2.811,-1.311 0.795,-16.702 7.041,-27.323 0,0 4.692,5.193 16.394,11.857 0,0 -2.053,1.7 -3.825,6.113 0,0 -4.423,17.471 0.087,20.232 0,0 -9.871,0.844 -13.975,8.271 0,0 -3.145,13.947 -9.204,11.052 -6.991,-2.707 -15.768,-8.924 -22.293,-13.137 l 0,0 z m 24.901,17.507 c 0,0 8.312,-0.324 9.59,-10.592 0,0 3.545,-8.764 13.993,-9.394 -2.946,-0.97 -1.18,-16.679 3.77,-27.963 0,0 5.272,4.604 17.678,9.841 0,0 -1.838,1.931 -3.078,6.521 0,0 -2.331,17.871 2.473,20.081 0,0 -9.702,2.003 -12.901,9.861 0,0 -1.478,14.221 -7.836,12.061 -7.265,-1.863 -16.713,-7.002 -23.689,-10.416 l 0,0 z m 28.393,14.08 c 0,0 8.167,-1.58 7.873,-11.922 0,0 2.176,-9.201 12.408,-11.407 -3.06,-0.513 -3.695,-16.308 -0.514,-28.211 0,0 5.909,3.752 18.966,7.047 0,0 -1.524,2.188 -2.054,6.913 0,0 0.405,18.018 5.488,19.475 0,0 -9.286,3.449 -11.257,11.702 0,0 0.695,14.28 -5.917,13.109 -7.462,-0.741 -17.581,-4.39 -24.993,-6.706 l 0,0 z" style="fill:#fff100;fill-rule:evenodd" />
			<polygon points="457.81,334.614 455.816,334.614 455.318,332.87 455.318,332.87 457.063,330.877 458.807,331.376 458.807,333.12 " style="fill:none;stroke:#231815;stroke-width:0.21600001;stroke-miterlimit:2.41420007" />
			<path d="m 344.573,340.058 1.838,7.966 4.29,6.128 2.451,3.063 1.225,-4.289 v -4.29 -4.901 l -3.063,-3.677 c -0.001,0 -7.354,0 -6.741,0 l 0,0 z m -40.583,5.931 c 0.698,1.222 0.175,1.047 0,3.839 -0.174,2.791 -2.792,4.361 -1.396,5.06 1.396,0.697 0.873,0.697 2.617,1.221 1.745,0.523 0.873,1.222 2.617,0.872 1.745,-0.349 0.873,1.047 1.745,-0.872 0.873,-1.919 0.175,-1.57 1.047,-2.269 0.872,-0.697 4.188,-3.314 4.188,-3.314 0,0 1.046,-1.221 1.221,1.396 0.175,2.617 -0.174,2.269 0.873,4.537 1.047,2.268 1.745,1.744 2.792,4.013 1.047,2.268 1.919,1.919 2.268,4.012 0.349,2.095 0,1.92 0.698,3.142 0.698,1.221 0.523,0.872 1.047,2.093 0.524,1.221 1.919,2.094 1.919,2.094 0,0 1.396,-0.873 2.094,-1.745 0.698,-0.872 2.268,-0.174 0.873,-1.744 -1.396,-1.57 -0.873,-0.523 -1.745,-2.094 -0.873,-1.57 0.523,1.57 -1.396,-3.141 -1.919,-4.711 -1.745,-2.966 -2.617,-5.408 -0.872,-2.442 -1.221,-2.268 -1.396,-3.664 -0.174,-1.396 -0.349,-2.442 -0.349,-2.442 l 0.174,-1.221 -0.349,-2.792 0.349,-2.094 c 0,0 0.872,-0.523 2.792,-1.744 1.919,-1.222 2.093,-0.523 2.792,-1.745 0.698,-1.222 1.046,-1.222 1.221,-2.094 0.175,-0.872 0.175,-1.569 0.175,-1.569 l -2.442,-0.873 c 0,0 -1.57,-0.349 -0.349,-1.745 1.221,-1.396 1.221,-1.569 1.221,-1.569 0,0 0.175,-0.175 0.873,-1.047 0.698,-0.872 0.523,-0.523 1.047,-2.269 0.523,-1.744 0.698,-2.442 0.698,-4.012 0,-1.571 0.174,-2.095 -0.349,-3.142 -0.523,-1.046 -0.523,-1.046 -0.523,-1.046 l -2.617,0.697 c 0,0 -1.221,0.175 -2.094,0.698 -0.873,0.523 -0.174,0.174 -1.57,1.221 -1.396,1.048 -1.919,1.048 -1.919,1.048 l -1.396,0.349 H 316.9 c 0,0 -0.175,-1.57 -0.349,-2.443 -0.174,-0.872 -0.349,-1.919 -0.349,-1.919 l -2.268,-0.872 h -1.919 l -2.792,0.698 -3.315,1.569 c 0,0 5.932,3.49 5.932,4.537 0,1.046 0,2.441 0,2.441 l 0.873,2.095 c 0,0 0.872,0.697 0.872,1.744 0,1.047 0.174,1.221 0.174,1.221 l -0.872,3.142 -2.966,3.663 -0.698,1.222 -0.523,0.872 -1.047,0.175 -3.663,1.218 0,0 z m 180.762,-9.897 c -1.683,1.684 -1.683,1.923 -4.327,4.327 -2.644,2.404 0,-2.404 -3.125,2.885 -3.126,5.29 -6.492,6.973 -5.29,7.454 1.202,0.48 3.126,0.961 3.126,0.961 l 2.164,0.241 2.885,0.48 c 0,0 1.442,0.24 1.442,-0.962 0,-1.202 -0.48,-0.48 0,-1.923 0.48,-1.443 0.722,-1.684 0.722,-1.684 0,0 0.48,0.24 1.201,-1.201 0.722,-1.443 1.924,-2.646 1.924,-2.646 l 1.683,-0.24 c 0,0 0,0.721 0,2.164 0,1.442 -0.24,1.683 -0.24,1.683 l -0.962,2.645 c 0,0 0.481,0.481 1.924,0.481 1.443,0 -0.481,0.961 2.164,0 2.645,-0.962 2.645,-0.241 3.365,-1.684 0.722,-1.442 0,-1.442 1.202,-1.683 1.202,-0.241 2.646,-1.442 2.646,-1.442 l -1.443,4.327 c 0,0 0.241,-1.923 -1.202,0.24 -1.442,2.164 -3.606,2.886 -3.606,2.886 h -1.923 l -1.442,0.962 c 0,0 -0.481,-0.481 0,1.683 0.48,2.164 0.961,2.164 0.961,2.164 0,0 -0.24,0.48 1.202,0.48 1.443,0 3.126,-0.722 3.126,-0.722 l 1.683,-0.721 c 1.202,0.24 2.164,0.721 2.164,0.721 0,0 0,-1.202 0.24,1.443 0.241,2.645 0,5.289 1.202,6.011 1.202,0.721 1.443,0.48 2.886,1.202 1.442,0.721 2.404,0.961 2.404,0.961 0,0 -0.241,0.962 1.442,-1.202 1.683,-2.163 0.721,-0.961 1.923,-3.126 1.202,-2.163 0.24,0.722 2.645,-5.528 2.404,-6.252 2.404,-6.732 3.606,-8.656 1.202,-1.923 0.481,-3.366 2.886,-6.491 2.405,-3.125 0.48,-3.366 3.365,-6.251 2.886,-2.885 1.684,-1.924 3.366,-3.606 1.682,-1.682 2.164,3.847 2.164,-2.164 0,-6.011 1.442,-4.809 -0.481,-7.213 -1.923,-2.403 -3.605,-2.403 -3.605,-2.403 h -2.886 l -5.049,2.164 c 0,0 -1.442,0.48 -2.885,0.48 -1.443,0 -3.366,0 -3.366,0 0,0 2.645,-1.443 -1.442,0.24 -4.087,1.683 -8.896,3.366 -8.896,3.366 l -0.24,3.125 -3.606,1.202 -2.404,-0.24 -0.962,1.442 v 1.683 c -0.481,1.202 0,1.443 -1.442,1.443 -1.442,0 -2.889,0.242 -2.889,0.242 l 0,0 z m 25.004,-4.809 c 0,0 2.164,-1.442 3.606,-1.924 1.443,-0.48 2.646,-0.961 2.646,-0.961 h 1.683 c 0,0 1.202,0.24 0.48,1.923 -0.721,1.684 -2.645,4.568 -2.645,4.568 0,0 -0.24,0.48 -0.24,2.164 0,1.683 -0.722,1.202 -0.722,2.404 0,1.202 1.684,-1.924 -0.721,2.644 -2.404,4.569 -1.684,0.963 -2.886,6.011 -1.202,5.05 -0.48,5.05 -2.645,8.416 -2.163,3.365 -3.365,4.327 -3.365,4.327 0,0 -0.241,-0.481 -1.684,-1.202 -1.443,-0.721 -1.202,-1.202 -1.683,-2.404 -0.481,-1.202 -2.404,-4.087 -2.404,-4.087 0,0 -0.24,-0.722 -0.24,-1.924 0,-1.202 -0.48,-0.962 0,-2.645 0.48,-1.684 0,-0.722 0.48,-1.923 0.481,-1.202 -0.961,-0.722 0.722,-1.202 1.683,-0.481 1.202,1.923 1.683,-0.481 0.481,-2.404 0.481,-3.125 0.481,-3.125 0,0 1.923,-0.962 3.605,-0.962 1.684,0 2.164,-0.24 2.164,-0.24 l 1.683,-1.202 c -1.442,-0.962 -1.442,-0.962 -1.442,-0.962 0,0 0.962,0.24 -1.442,-0.24 -2.404,-0.48 -2.645,-0.48 -2.645,-0.48 0,0 -0.721,-0.481 1.202,-1.924 1.926,-1.444 4.329,-4.569 4.329,-4.569 l 0,0 z m -18.753,6.732 6.252,-0.239 c 0,0 0.961,-0.241 2.163,-0.241 1.202,0 1.442,0 1.442,0 0,0 0.962,-0.722 1.924,-2.164 0.962,-1.442 1.683,-2.163 1.683,-2.163 l 2.404,-2.164 1.202,-2.164 c 0,0 0.48,0 -1.202,0.24 -1.682,0.24 -0.721,-0.24 -2.164,0.481 -1.442,0.721 -2.403,0.24 -3.847,1.202 -1.442,0.961 -2.403,1.202 -2.403,1.202 v 1.683 l -2.164,1.202 h -1.684 l -1.923,0.721 -1.683,2.404 0,0 z m -1.442,3.366 h 5.29 l 1.923,-0.48 -1.202,2.403 -4.568,1.924 -1.442,-0.24 c -0.001,-10e-4 -0.001,-4.088 -0.001,-3.607 l 0,0 z m -40.968,-25.699 1.494,-0.498 c 0,0 0.748,-0.498 1.744,-1.744 0.996,-1.245 -0.996,-0.996 2.74,-3.238 3.737,-2.242 3.238,-0.996 4.235,-4.732 0.996,-3.737 2.241,-5.232 2.989,-3.986 0.747,1.246 0.747,0.747 0.996,2.989 0.249,2.242 -2.242,4.235 0,2.491 2.242,-1.744 1.993,-2.242 3.238,-2.491 1.246,-0.249 1.246,-0.747 3.238,-0.747 1.993,0 3.239,0 3.239,0 0,0 3.238,-0.249 3.238,0.996 0,1.245 1.245,1.245 -0.748,2.74 -1.992,1.494 -3.736,2.242 -5.48,2.74 -1.743,0.498 -1.743,0.249 -3.736,1.246 -1.993,0.996 -1.494,0 -2.989,0.996 -1.494,0.996 -1.494,-1.495 -1.744,0.996 -0.249,2.492 -2.491,2.242 -0.747,2.989 1.744,0.748 0.249,0.249 1.744,0.748 1.494,0.498 1.494,-0.997 1.494,0.498 0,1.494 -2.491,-1.246 -0.249,2.242 2.242,3.487 2.242,2.491 2.242,3.736 0,1.245 1.744,0 0,1.245 -1.744,1.246 -2.74,1.246 -2.74,1.246 0,0 -0.747,-0.498 -1.993,0 -1.245,0.498 -4.234,-1.246 -1.494,0.498 2.74,1.744 2.491,0.996 2.989,2.242 0.498,1.246 1.744,-3.238 0.498,1.993 -1.245,5.23 -2.74,8.47 -2.74,8.47 0,0 -1.245,0 -1.495,4.982 -0.248,4.981 -0.498,4.732 -0.248,6.477 0.248,1.743 0.747,0.498 0.248,2.989 -0.498,2.491 -1.245,4.484 -1.245,4.484 l 0.498,1.992 -2.491,1.246 -3.985,-0.748 c 0,0 0,-0.249 0,-1.992 0,-1.744 -0.498,-2.491 -0.498,-3.737 0,-1.245 -0.249,-2.491 -0.249,-2.491 0,0 -1.495,-6.477 0.498,-1.494 1.993,4.983 2.242,4.234 2.242,4.234 v -1.245 l 1.494,-2.74 1.246,-1.245 v -1.495 c -1.993,-0.498 -3.239,-0.498 -3.239,-0.498 l -1.494,-1.744 c -1.246,0 -2.74,-0.498 -3.238,0.997 -0.498,1.494 -0.498,0.996 -0.997,2.241 -0.498,1.246 -0.996,0.499 -0.747,2.491 0.249,1.993 0.249,2.989 0.249,2.989 l -1.992,2.74 h -1.993 c -0.498,-2.241 -1.246,-1.245 -0.498,-3.736 0.747,-2.491 0,-1.495 0.996,-2.74 0.996,-1.245 0.996,-1.245 1.245,-3.238 0.25,-1.993 -0.996,-2.242 0.25,-3.487 1.245,-1.246 0,-0.499 1.743,-1.993 1.744,-1.495 0.996,-0.499 2.242,-1.993 1.246,-1.495 0.996,-1.245 1.744,-2.491 0.747,-1.245 1.494,-2.241 1.494,-2.241 l 0.498,-1.744 h -2.74 c 0,0 -5.231,2.74 -4.234,1.245 0.996,-1.494 0.996,-3.238 2.242,-3.985 1.245,-0.748 2.242,-1.245 2.242,-1.245 l 1.743,-2.243 -2.242,0.748 -0.498,-1.993 c 0,0 -0.747,-2.241 0.498,-1.744 1.246,0.499 2.242,0.748 2.242,0.748 l 1.245,-1.993 -1.743,-0.498 -1.495,-1.246 0.748,-1.245 c 1.245,-0.249 1.494,-0.249 1.494,-0.249 l 1.495,-1.495 h -3.737 l -1.494,-0.498 0.498,-2.742 0,0 z m 4.484,26.904 -0.25,-3.238 1.993,-0.25 h 1.495 l 0.249,1.744 c 0.29,2.033 -3.487,1.744 -3.487,1.744 m 2.241,-9.715 1.744,-1.993 1.744,0.498 v 1.744 l -0.997,1.494 h -1.992 l -0.499,-1.743 0,0 z m 1.495,-9.716 c 0,0 -0.747,-2.242 0.747,-2.74 1.495,-0.498 1.495,-3.238 2.491,-0.997 0.996,2.243 1.993,2.243 0.498,3.488 -1.494,1.245 -3.985,1.743 -3.985,1.743 l 0.249,-1.494 0,0 z m -60.783,-6.227 c 0.498,0.249 0.996,0.996 1.495,2.49 0.498,1.495 1.246,2.99 1.246,2.99 l -0.499,1.743 -2.242,1.246 c 0,0 -0.499,0.249 -0.997,1.494 -0.498,1.246 -1.744,2.491 -0.498,2.242 1.245,-0.249 0.996,-0.996 2.242,-0.747 1.246,0.249 2.242,0.498 2.242,0.498 l 1.494,1.246 c 1.993,0.747 1.495,1.992 1.993,0.497 0.499,-1.494 0,-2.241 0,-2.241 l -1.246,-0.748 1.495,-0.747 1.993,-1.494 c 0,0 0.996,-0.748 2.242,-1.495 1.246,-0.747 2.242,-1.494 2.242,-1.494 0,0 0.747,0.747 0.499,1.993 -0.25,1.245 -1.246,0.497 -1.246,1.743 0,1.246 0,1.494 0,1.494 l -0.498,1.246 -0.747,1.743 -1.744,0.748 c 0,0 0.747,0.498 -0.499,1.495 -1.246,0.996 -3.737,1.494 -3.737,2.739 0,1.246 -2.989,2.242 -1.246,2.491 1.744,0.249 3.986,0.748 3.986,0.748 0,0 -0.25,2.988 1.743,-0.748 1.993,-3.736 0,-2.491 2.242,-3.736 2.242,-1.245 1.993,-1.494 3.488,-2.242 1.495,-0.747 -0.748,0.748 2.74,-0.996 3.488,-1.744 6.228,0.249 3.986,-1.993 -2.242,-2.242 -2.74,-2.491 -2.74,-2.491 0,0 -0.499,0.748 -0.25,-1.744 0.25,-2.49 0.499,-4.732 0.499,-4.732 0,0 -1.495,-0.498 0.498,-1.744 1.993,-1.245 0.748,0.249 2.242,-1.245 1.495,-1.495 6.228,-2.242 4.734,-3.986 -1.495,-1.743 -2.741,-0.996 -2.99,-2.491 -0.249,-1.494 -0.748,-1.992 0,-3.487 0.748,-1.494 0.748,-1.494 0.748,-1.494 0,0 -0.499,-2.242 -1.246,-3.986 -0.748,-1.743 -4.235,-2.989 -4.235,-2.989 h -3.239 c 0,0 0,1.743 1.495,2.74 1.495,0.996 1.744,2.491 1.744,2.491 0,0 -0.25,-0.249 0,1.245 0.249,1.495 0.996,-0.249 -0.25,2.242 -1.245,2.491 -1.993,3.238 -1.993,3.238 0,0 1.246,-0.249 -0.249,1.495 -1.495,1.744 -2.74,1.744 -3.488,2.989 -0.747,1.245 -1.993,2.241 -1.993,2.241 l -1.993,1.744 -1.993,0.748 -1.246,-1.744 c 0,0 -0.498,-0.748 -1.744,-0.996 -1.241,-0.249 -4.978,-0.499 -4.48,-0.249 l 0,0 z m 4.982,28.398 c 0.748,0 -3.487,1.993 -4.982,3.487 -1.495,1.495 -2.242,1.246 -3.737,1.993 -1.495,0.747 -2.989,-0.747 -1.993,0.747 0.996,1.495 1.495,1.743 3.238,2.989 1.743,1.246 2.242,2.491 2.242,2.491 0,0 1.246,2.989 1.744,0.747 0.498,-2.241 0.747,-3.238 0.747,-3.238 0,0 0.748,-2.74 2.242,-3.986 1.495,-1.245 1.495,-1.494 1.495,-1.494 l -1.246,-2.242 c 10e-4,0 -0.497,-1.494 0.25,-1.494 l 0,0 z m 15.944,-3.488 c 0.747,1.246 1.494,1.744 1.993,3.488 0.498,1.744 -2.491,1.993 -0.249,2.989 2.242,0.996 2.491,1.993 3.986,0.747 1.494,-1.245 2.241,-1.495 2.241,-1.495 0,0 2.242,0 0.499,-1.494 -1.744,-1.494 -3.239,-1.246 -2.989,-2.74 0.249,-1.495 0.498,-2.491 0.498,-2.491 0,0 0.747,-1.494 -0.498,-2.241 -1.246,-0.748 -1.994,-1.495 -1.994,-1.495 0,0 -1.744,-0.498 -2.242,0.747 -0.498,1.245 -1.245,3.985 -1.245,3.985 l 0,0 z m -67.481,-17.1 c 3.677,-3.063 4.902,-6.127 4.902,-6.127 l 3.064,-4.29 3.677,-2.451 3.064,-1.225 h 3.063 c 3.064,1.838 3.064,-0.613 4.902,2.451 1.838,3.063 3.676,4.289 3.676,4.289 l 1.226,4.289 0.613,4.901 c 0,0 1.226,0 0.613,4.903 -0.613,4.901 -1.838,8.578 -1.838,8.578 0,0 0.613,-1.226 0.613,3.063 0,4.29 -1.838,7.354 -1.838,7.354 l -1.226,3.063 h -4.289 c -2.451,-3.676 -2.451,-4.289 -2.451,-4.289 l 3.064,-1.226 2.451,-3.063 v -3.064 c 0.613,-3.676 1.226,-1.226 0.613,-6.74 -0.613,-5.515 -0.613,-6.127 -0.613,-6.127 l -1.225,-5.515 c -0.613,-3.677 -1.838,-6.128 -1.838,-6.128 l -4.29,-1.226 -4.289,2.451 -3.064,3.676 3.064,4.289 c 3.676,1.227 4.289,-3.063 4.902,0 0.613,3.064 0.613,3.677 0.613,3.677 l -1.838,3.677 v 4.29 l 1.838,3.676 -2.451,7.967 h -4.29 l 0.613,-3.064 -3.677,-1.838 v -3.064 l 3.677,-0.612 -3.064,-2.451 -4.902,-4.289 -0.612,-4.29 c 3.676,-0.612 3.676,-0.612 3.676,-0.612 l 1.838,-3.064 h -3.676 l -4.291,-1.839 0,0 z m 7.858,8.609 c -0.713,0.143 -1.142,-0.571 -0.428,-1.142 0.714,-0.571 2.427,-1.713 2.427,-1.713 0,0 0.713,0.285 0.428,1.427 -0.286,1.143 -0.428,1.284 -0.428,1.284 l -0.856,0.429 -1.143,-0.285 0,0 z m 11.418,6.137 c 0,0 1.713,-2.427 1.855,-1.285 0.142,1.142 -0.286,3.14 -0.286,3.14 l -0.856,0.856 -1.142,-1.142 0.429,-1.569 0,0 z m -59.703,9.263 2.138,-1.555 3.109,-2.915 c 0,0 0.194,0.777 -0.194,1.749 -0.389,0.972 -0.389,0.389 -0.972,1.36 -0.583,0.971 -1.555,1.749 -1.555,1.749 0,0 -3.109,-0.388 -2.526,-0.388 l 0,0 z m 9.522,-9.716 c 0,0 1.166,-1.944 1.36,-3.304 0.194,-1.36 0.777,-2.915 0.777,-2.915 0,0 0.777,-0.583 0.583,1.555 -0.194,2.138 -0.583,1.943 -0.194,3.304 0.389,1.361 0.583,2.137 0.583,2.137 l -2.138,1.166 c -0.194,-0.972 -0.971,-1.943 -0.971,-1.943 l 0,0 z" style="fill:#fff100;fill-rule:evenodd" />
			<polygon points="548.186,325.452 520.05,378.742 520.294,383.84 548.768,329.631 548.186,325.452 " style="fill:#b00000;fill-rule:evenodd" />
			<polygon points="269.476,338.523 302.048,384.492 302.147,389.595 268.241,339.931 269.476,338.523 " style="fill:#b00000;fill-rule:evenodd" />
			<path d="m 232.952,251.435 c -4.065,14.579 -6.857,32.868 -6.857,48.663 0,91.247 80.883,170.527 172.907,178.97 l -0.153,3.64 C 305.429,473.574 222.28,392.892 222.28,300.099 c 0,-16.333 2.896,-35.138 7.151,-50.193 l 3.521,1.529 0,0 z" style="fill:#fabe00;fill-rule:evenodd" />
		</g>
	</g>
</g>
</svg>